<mxfile host="Electron" agent="Mozilla/5.0 (Windows NT 10.0; Win64; x64) AppleWebKit/537.36 (KHTML, like Gecko) draw.io/26.0.4 Chrome/128.0.6613.186 Electron/32.2.5 Safari/537.36" version="26.0.4">
  <diagram id="C5RBs43oDa-KdzZeNtuy" name="Page-1">
    <mxGraphModel dx="1434" dy="844" grid="1" gridSize="10" guides="1" tooltips="1" connect="1" arrows="1" fold="1" page="1" pageScale="1" pageWidth="827" pageHeight="1169" math="0" shadow="0">
      <root>
        <mxCell id="WIyWlLk6GJQsqaUBKTNV-0" />
        <mxCell id="WIyWlLk6GJQsqaUBKTNV-1" parent="WIyWlLk6GJQsqaUBKTNV-0" />
        <mxCell id="LgpKlYFtUbhMLbTFaG_L-42" style="edgeStyle=orthogonalEdgeStyle;rounded=0;orthogonalLoop=1;jettySize=auto;html=1;exitX=0.5;exitY=1;exitDx=0;exitDy=0;" edge="1" parent="WIyWlLk6GJQsqaUBKTNV-1" source="LgpKlYFtUbhMLbTFaG_L-2">
          <mxGeometry relative="1" as="geometry">
            <mxPoint x="155" y="330" as="targetPoint" />
          </mxGeometry>
        </mxCell>
        <mxCell id="LgpKlYFtUbhMLbTFaG_L-2" value="Declarations&lt;div&gt;&lt;span style=&quot;background-color: transparent; color: light-dark(rgb(0, 0, 0), rgb(255, 255, 255));&quot;&gt;string costomersLastName&lt;/span&gt;&lt;/div&gt;&lt;div&gt;string STOP = &quot;XXX&quot;&lt;br&gt;&lt;div&gt;num bathRooms&lt;/div&gt;&lt;/div&gt;&lt;div&gt;num otherRooms&lt;/div&gt;&lt;div&gt;num serviceCharge = 40&lt;/div&gt;&lt;div&gt;num bathroomCharge&lt;/div&gt;&lt;div&gt;num otherroomCharge&lt;/div&gt;&lt;div&gt;num totalCost&lt;/div&gt;&lt;div&gt;string HEADING = &quot;bill of service&quot;&lt;/div&gt;&lt;div&gt;string ENDLINE = &quot;end of bill...&quot;&lt;/div&gt;" style="rounded=0;whiteSpace=wrap;html=1;" vertex="1" parent="WIyWlLk6GJQsqaUBKTNV-1">
          <mxGeometry x="30" y="100" width="250" height="200" as="geometry" />
        </mxCell>
        <mxCell id="LgpKlYFtUbhMLbTFaG_L-52" style="edgeStyle=orthogonalEdgeStyle;rounded=0;orthogonalLoop=1;jettySize=auto;html=1;exitX=0.5;exitY=1;exitDx=0;exitDy=0;" edge="1" parent="WIyWlLk6GJQsqaUBKTNV-1" source="LgpKlYFtUbhMLbTFaG_L-14">
          <mxGeometry relative="1" as="geometry">
            <mxPoint x="643" y="320" as="targetPoint" />
          </mxGeometry>
        </mxCell>
        <mxCell id="LgpKlYFtUbhMLbTFaG_L-14" value="input constomersLastName" style="shape=parallelogram;perimeter=parallelogramPerimeter;whiteSpace=wrap;html=1;fixedSize=1;" vertex="1" parent="WIyWlLk6GJQsqaUBKTNV-1">
          <mxGeometry x="550" y="240" width="185" height="60" as="geometry" />
        </mxCell>
        <mxCell id="LgpKlYFtUbhMLbTFaG_L-15" value="input bathRooms" style="shape=parallelogram;perimeter=parallelogramPerimeter;whiteSpace=wrap;html=1;fixedSize=1;" vertex="1" parent="WIyWlLk6GJQsqaUBKTNV-1">
          <mxGeometry x="304" y="640" width="120" height="60" as="geometry" />
        </mxCell>
        <mxCell id="LgpKlYFtUbhMLbTFaG_L-57" style="edgeStyle=orthogonalEdgeStyle;rounded=0;orthogonalLoop=1;jettySize=auto;html=1;exitX=0.5;exitY=1;exitDx=0;exitDy=0;entryX=0.5;entryY=0;entryDx=0;entryDy=0;" edge="1" parent="WIyWlLk6GJQsqaUBKTNV-1" source="LgpKlYFtUbhMLbTFaG_L-16" target="LgpKlYFtUbhMLbTFaG_L-17">
          <mxGeometry relative="1" as="geometry">
            <mxPoint x="354" y="790" as="targetPoint" />
          </mxGeometry>
        </mxCell>
        <mxCell id="LgpKlYFtUbhMLbTFaG_L-16" value="input otherRooms" style="shape=parallelogram;perimeter=parallelogramPerimeter;whiteSpace=wrap;html=1;fixedSize=1;" vertex="1" parent="WIyWlLk6GJQsqaUBKTNV-1">
          <mxGeometry x="294" y="720" width="120" height="60" as="geometry" />
        </mxCell>
        <mxCell id="LgpKlYFtUbhMLbTFaG_L-58" style="edgeStyle=orthogonalEdgeStyle;rounded=0;orthogonalLoop=1;jettySize=auto;html=1;exitX=0.5;exitY=1;exitDx=0;exitDy=0;entryX=0.5;entryY=0;entryDx=0;entryDy=0;" edge="1" parent="WIyWlLk6GJQsqaUBKTNV-1" source="LgpKlYFtUbhMLbTFaG_L-17" target="LgpKlYFtUbhMLbTFaG_L-18">
          <mxGeometry relative="1" as="geometry">
            <mxPoint x="354" y="870" as="targetPoint" />
          </mxGeometry>
        </mxCell>
        <mxCell id="LgpKlYFtUbhMLbTFaG_L-17" value="bathroomCharge = bathRooms * 15&amp;nbsp;" style="rounded=0;whiteSpace=wrap;html=1;" vertex="1" parent="WIyWlLk6GJQsqaUBKTNV-1">
          <mxGeometry x="294" y="800" width="120" height="60" as="geometry" />
        </mxCell>
        <mxCell id="LgpKlYFtUbhMLbTFaG_L-59" style="edgeStyle=orthogonalEdgeStyle;rounded=0;orthogonalLoop=1;jettySize=auto;html=1;exitX=0.5;exitY=1;exitDx=0;exitDy=0;entryX=0.5;entryY=0;entryDx=0;entryDy=0;" edge="1" parent="WIyWlLk6GJQsqaUBKTNV-1" source="LgpKlYFtUbhMLbTFaG_L-18" target="LgpKlYFtUbhMLbTFaG_L-19">
          <mxGeometry relative="1" as="geometry" />
        </mxCell>
        <mxCell id="LgpKlYFtUbhMLbTFaG_L-18" value="otherroomCharge = otherRooms * 10&amp;nbsp;" style="rounded=0;whiteSpace=wrap;html=1;" vertex="1" parent="WIyWlLk6GJQsqaUBKTNV-1">
          <mxGeometry x="294" y="880" width="120" height="60" as="geometry" />
        </mxCell>
        <mxCell id="LgpKlYFtUbhMLbTFaG_L-63" style="edgeStyle=orthogonalEdgeStyle;rounded=0;orthogonalLoop=1;jettySize=auto;html=1;" edge="1" parent="WIyWlLk6GJQsqaUBKTNV-1" source="LgpKlYFtUbhMLbTFaG_L-19" target="LgpKlYFtUbhMLbTFaG_L-20">
          <mxGeometry relative="1" as="geometry" />
        </mxCell>
        <mxCell id="LgpKlYFtUbhMLbTFaG_L-19" value="totalCost = bathroomCharge + otherroomCharge +&lt;div&gt;serviceCharge&lt;/div&gt;" style="rounded=0;whiteSpace=wrap;html=1;" vertex="1" parent="WIyWlLk6GJQsqaUBKTNV-1">
          <mxGeometry x="294" y="960" width="120" height="60" as="geometry" />
        </mxCell>
        <mxCell id="LgpKlYFtUbhMLbTFaG_L-67" style="edgeStyle=orthogonalEdgeStyle;rounded=0;orthogonalLoop=1;jettySize=auto;html=1;exitX=0.5;exitY=1;exitDx=0;exitDy=0;entryX=0.5;entryY=0;entryDx=0;entryDy=0;" edge="1" parent="WIyWlLk6GJQsqaUBKTNV-1" source="LgpKlYFtUbhMLbTFaG_L-20" target="LgpKlYFtUbhMLbTFaG_L-21">
          <mxGeometry relative="1" as="geometry" />
        </mxCell>
        <mxCell id="LgpKlYFtUbhMLbTFaG_L-20" value="output bathroomCharge + serviceCharge" style="shape=parallelogram;perimeter=parallelogramPerimeter;whiteSpace=wrap;html=1;fixedSize=1;" vertex="1" parent="WIyWlLk6GJQsqaUBKTNV-1">
          <mxGeometry x="269" y="1040" width="170" height="60" as="geometry" />
        </mxCell>
        <mxCell id="LgpKlYFtUbhMLbTFaG_L-68" style="edgeStyle=orthogonalEdgeStyle;rounded=0;orthogonalLoop=1;jettySize=auto;html=1;exitX=0.5;exitY=1;exitDx=0;exitDy=0;entryX=0.5;entryY=0;entryDx=0;entryDy=0;" edge="1" parent="WIyWlLk6GJQsqaUBKTNV-1" source="LgpKlYFtUbhMLbTFaG_L-21" target="LgpKlYFtUbhMLbTFaG_L-22">
          <mxGeometry relative="1" as="geometry" />
        </mxCell>
        <mxCell id="LgpKlYFtUbhMLbTFaG_L-21" value="output otherroomCharge + serviceCharge" style="shape=parallelogram;perimeter=parallelogramPerimeter;whiteSpace=wrap;html=1;fixedSize=1;" vertex="1" parent="WIyWlLk6GJQsqaUBKTNV-1">
          <mxGeometry x="265" y="1120" width="170" height="60" as="geometry" />
        </mxCell>
        <mxCell id="LgpKlYFtUbhMLbTFaG_L-22" value="output totalCost" style="shape=parallelogram;perimeter=parallelogramPerimeter;whiteSpace=wrap;html=1;fixedSize=1;" vertex="1" parent="WIyWlLk6GJQsqaUBKTNV-1">
          <mxGeometry x="290" y="1200" width="120" height="60" as="geometry" />
        </mxCell>
        <mxCell id="LgpKlYFtUbhMLbTFaG_L-41" style="edgeStyle=orthogonalEdgeStyle;rounded=0;orthogonalLoop=1;jettySize=auto;html=1;exitX=0.5;exitY=1;exitDx=0;exitDy=0;exitPerimeter=0;" edge="1" parent="WIyWlLk6GJQsqaUBKTNV-1" source="LgpKlYFtUbhMLbTFaG_L-24">
          <mxGeometry relative="1" as="geometry">
            <mxPoint x="150" y="90" as="targetPoint" />
          </mxGeometry>
        </mxCell>
        <mxCell id="LgpKlYFtUbhMLbTFaG_L-24" value="start" style="strokeWidth=2;html=1;shape=mxgraph.flowchart.terminator;whiteSpace=wrap;" vertex="1" parent="WIyWlLk6GJQsqaUBKTNV-1">
          <mxGeometry x="100" y="20" width="100" height="60" as="geometry" />
        </mxCell>
        <mxCell id="LgpKlYFtUbhMLbTFaG_L-50" style="edgeStyle=orthogonalEdgeStyle;rounded=0;orthogonalLoop=1;jettySize=auto;html=1;exitX=0.5;exitY=1;exitDx=0;exitDy=0;exitPerimeter=0;" edge="1" parent="WIyWlLk6GJQsqaUBKTNV-1" source="LgpKlYFtUbhMLbTFaG_L-25">
          <mxGeometry relative="1" as="geometry">
            <mxPoint x="653" y="150" as="targetPoint" />
          </mxGeometry>
        </mxCell>
        <mxCell id="LgpKlYFtUbhMLbTFaG_L-25" value="houseKeeping()" style="strokeWidth=2;html=1;shape=mxgraph.flowchart.terminator;whiteSpace=wrap;" vertex="1" parent="WIyWlLk6GJQsqaUBKTNV-1">
          <mxGeometry x="603" y="80" width="100" height="60" as="geometry" />
        </mxCell>
        <mxCell id="LgpKlYFtUbhMLbTFaG_L-51" style="edgeStyle=orthogonalEdgeStyle;rounded=0;orthogonalLoop=1;jettySize=auto;html=1;exitX=0.5;exitY=1;exitDx=0;exitDy=0;" edge="1" parent="WIyWlLk6GJQsqaUBKTNV-1" source="LgpKlYFtUbhMLbTFaG_L-26">
          <mxGeometry relative="1" as="geometry">
            <mxPoint x="653" y="230" as="targetPoint" />
          </mxGeometry>
        </mxCell>
        <mxCell id="LgpKlYFtUbhMLbTFaG_L-26" value="output HEADING" style="shape=parallelogram;perimeter=parallelogramPerimeter;whiteSpace=wrap;html=1;fixedSize=1;" vertex="1" parent="WIyWlLk6GJQsqaUBKTNV-1">
          <mxGeometry x="592.5" y="160" width="120" height="60" as="geometry" />
        </mxCell>
        <mxCell id="LgpKlYFtUbhMLbTFaG_L-27" value="return" style="strokeWidth=2;html=1;shape=mxgraph.flowchart.terminator;whiteSpace=wrap;" vertex="1" parent="WIyWlLk6GJQsqaUBKTNV-1">
          <mxGeometry x="600" y="330" width="100" height="60" as="geometry" />
        </mxCell>
        <mxCell id="LgpKlYFtUbhMLbTFaG_L-43" style="edgeStyle=orthogonalEdgeStyle;rounded=0;orthogonalLoop=1;jettySize=auto;html=1;exitX=0.5;exitY=1;exitDx=0;exitDy=0;" edge="1" parent="WIyWlLk6GJQsqaUBKTNV-1" source="LgpKlYFtUbhMLbTFaG_L-28">
          <mxGeometry relative="1" as="geometry">
            <mxPoint x="150" y="430" as="targetPoint" />
          </mxGeometry>
        </mxCell>
        <mxCell id="LgpKlYFtUbhMLbTFaG_L-28" value="houseKeeping()" style="shape=process;whiteSpace=wrap;html=1;backgroundOutline=1;" vertex="1" parent="WIyWlLk6GJQsqaUBKTNV-1">
          <mxGeometry x="90" y="350" width="120" height="60" as="geometry" />
        </mxCell>
        <mxCell id="LgpKlYFtUbhMLbTFaG_L-44" style="edgeStyle=orthogonalEdgeStyle;rounded=0;orthogonalLoop=1;jettySize=auto;html=1;" edge="1" parent="WIyWlLk6GJQsqaUBKTNV-1" source="LgpKlYFtUbhMLbTFaG_L-29">
          <mxGeometry relative="1" as="geometry">
            <mxPoint x="280" y="510" as="targetPoint" />
          </mxGeometry>
        </mxCell>
        <mxCell id="LgpKlYFtUbhMLbTFaG_L-48" style="edgeStyle=orthogonalEdgeStyle;rounded=0;orthogonalLoop=1;jettySize=auto;html=1;" edge="1" parent="WIyWlLk6GJQsqaUBKTNV-1" source="LgpKlYFtUbhMLbTFaG_L-29">
          <mxGeometry relative="1" as="geometry">
            <mxPoint x="150" y="620" as="targetPoint" />
          </mxGeometry>
        </mxCell>
        <mxCell id="LgpKlYFtUbhMLbTFaG_L-29" value="name not equal to STOP?" style="rhombus;whiteSpace=wrap;html=1;" vertex="1" parent="WIyWlLk6GJQsqaUBKTNV-1">
          <mxGeometry x="67.5" y="435" width="165" height="150" as="geometry" />
        </mxCell>
        <mxCell id="LgpKlYFtUbhMLbTFaG_L-30" value="detailLoop()" style="shape=process;whiteSpace=wrap;html=1;backgroundOutline=1;" vertex="1" parent="WIyWlLk6GJQsqaUBKTNV-1">
          <mxGeometry x="294" y="480" width="120" height="60" as="geometry" />
        </mxCell>
        <mxCell id="LgpKlYFtUbhMLbTFaG_L-49" style="edgeStyle=orthogonalEdgeStyle;rounded=0;orthogonalLoop=1;jettySize=auto;html=1;" edge="1" parent="WIyWlLk6GJQsqaUBKTNV-1" source="LgpKlYFtUbhMLbTFaG_L-31">
          <mxGeometry relative="1" as="geometry">
            <mxPoint x="150" y="720" as="targetPoint" />
          </mxGeometry>
        </mxCell>
        <mxCell id="LgpKlYFtUbhMLbTFaG_L-31" value="endOfJob()" style="shape=process;whiteSpace=wrap;html=1;backgroundOutline=1;" vertex="1" parent="WIyWlLk6GJQsqaUBKTNV-1">
          <mxGeometry x="90" y="630" width="120" height="60" as="geometry" />
        </mxCell>
        <mxCell id="LgpKlYFtUbhMLbTFaG_L-32" value="stop" style="strokeWidth=2;html=1;shape=mxgraph.flowchart.terminator;whiteSpace=wrap;" vertex="1" parent="WIyWlLk6GJQsqaUBKTNV-1">
          <mxGeometry x="100" y="730" width="100" height="60" as="geometry" />
        </mxCell>
        <mxCell id="LgpKlYFtUbhMLbTFaG_L-55" style="edgeStyle=orthogonalEdgeStyle;rounded=0;orthogonalLoop=1;jettySize=auto;html=1;exitX=0.5;exitY=1;exitDx=0;exitDy=0;exitPerimeter=0;entryX=0.5;entryY=0;entryDx=0;entryDy=0;" edge="1" parent="WIyWlLk6GJQsqaUBKTNV-1" source="LgpKlYFtUbhMLbTFaG_L-33" target="LgpKlYFtUbhMLbTFaG_L-15">
          <mxGeometry relative="1" as="geometry">
            <mxPoint x="364" y="630" as="targetPoint" />
          </mxGeometry>
        </mxCell>
        <mxCell id="LgpKlYFtUbhMLbTFaG_L-33" value="detailLoop()" style="strokeWidth=2;html=1;shape=mxgraph.flowchart.terminator;whiteSpace=wrap;" vertex="1" parent="WIyWlLk6GJQsqaUBKTNV-1">
          <mxGeometry x="314" y="560" width="100" height="60" as="geometry" />
        </mxCell>
        <mxCell id="LgpKlYFtUbhMLbTFaG_L-34" value="return" style="strokeWidth=2;html=1;shape=mxgraph.flowchart.terminator;whiteSpace=wrap;" vertex="1" parent="WIyWlLk6GJQsqaUBKTNV-1">
          <mxGeometry x="280" y="1360" width="100" height="60" as="geometry" />
        </mxCell>
        <mxCell id="LgpKlYFtUbhMLbTFaG_L-35" value="input costomerLastName" style="shape=parallelogram;perimeter=parallelogramPerimeter;whiteSpace=wrap;html=1;fixedSize=1;" vertex="1" parent="WIyWlLk6GJQsqaUBKTNV-1">
          <mxGeometry x="254" y="1280" width="170" height="60" as="geometry" />
        </mxCell>
        <mxCell id="LgpKlYFtUbhMLbTFaG_L-53" style="edgeStyle=orthogonalEdgeStyle;rounded=0;orthogonalLoop=1;jettySize=auto;html=1;" edge="1" parent="WIyWlLk6GJQsqaUBKTNV-1" source="LgpKlYFtUbhMLbTFaG_L-37">
          <mxGeometry relative="1" as="geometry">
            <mxPoint x="653" y="540" as="targetPoint" />
          </mxGeometry>
        </mxCell>
        <mxCell id="LgpKlYFtUbhMLbTFaG_L-37" value="endOfJob()" style="strokeWidth=2;html=1;shape=mxgraph.flowchart.terminator;whiteSpace=wrap;" vertex="1" parent="WIyWlLk6GJQsqaUBKTNV-1">
          <mxGeometry x="603" y="460" width="100" height="60" as="geometry" />
        </mxCell>
        <mxCell id="LgpKlYFtUbhMLbTFaG_L-54" style="edgeStyle=orthogonalEdgeStyle;rounded=0;orthogonalLoop=1;jettySize=auto;html=1;" edge="1" parent="WIyWlLk6GJQsqaUBKTNV-1" source="LgpKlYFtUbhMLbTFaG_L-38">
          <mxGeometry relative="1" as="geometry">
            <mxPoint x="650" y="640" as="targetPoint" />
          </mxGeometry>
        </mxCell>
        <mxCell id="LgpKlYFtUbhMLbTFaG_L-38" value="output ENDLINE" style="shape=parallelogram;perimeter=parallelogramPerimeter;whiteSpace=wrap;html=1;fixedSize=1;" vertex="1" parent="WIyWlLk6GJQsqaUBKTNV-1">
          <mxGeometry x="590" y="555" width="120" height="60" as="geometry" />
        </mxCell>
        <mxCell id="LgpKlYFtUbhMLbTFaG_L-39" value="return" style="strokeWidth=2;html=1;shape=mxgraph.flowchart.terminator;whiteSpace=wrap;" vertex="1" parent="WIyWlLk6GJQsqaUBKTNV-1">
          <mxGeometry x="603" y="650" width="100" height="60" as="geometry" />
        </mxCell>
        <mxCell id="LgpKlYFtUbhMLbTFaG_L-47" value="" style="curved=1;endArrow=classic;html=1;rounded=0;exitX=1;exitY=0.5;exitDx=0;exitDy=0;" edge="1" parent="WIyWlLk6GJQsqaUBKTNV-1" source="LgpKlYFtUbhMLbTFaG_L-30">
          <mxGeometry width="50" height="50" relative="1" as="geometry">
            <mxPoint x="440" y="510" as="sourcePoint" />
            <mxPoint x="170" y="420" as="targetPoint" />
            <Array as="points">
              <mxPoint x="440" y="520" />
              <mxPoint x="440" y="450" />
              <mxPoint x="440" y="410" />
            </Array>
          </mxGeometry>
        </mxCell>
        <mxCell id="LgpKlYFtUbhMLbTFaG_L-62" style="edgeStyle=orthogonalEdgeStyle;rounded=0;orthogonalLoop=1;jettySize=auto;html=1;entryX=0.575;entryY=0.017;entryDx=0;entryDy=0;entryPerimeter=0;" edge="1" parent="WIyWlLk6GJQsqaUBKTNV-1" source="LgpKlYFtUbhMLbTFaG_L-15" target="LgpKlYFtUbhMLbTFaG_L-16">
          <mxGeometry relative="1" as="geometry" />
        </mxCell>
        <mxCell id="LgpKlYFtUbhMLbTFaG_L-69" style="edgeStyle=orthogonalEdgeStyle;rounded=0;orthogonalLoop=1;jettySize=auto;html=1;exitX=0.5;exitY=1;exitDx=0;exitDy=0;entryX=0.559;entryY=-0.033;entryDx=0;entryDy=0;entryPerimeter=0;" edge="1" parent="WIyWlLk6GJQsqaUBKTNV-1" source="LgpKlYFtUbhMLbTFaG_L-22" target="LgpKlYFtUbhMLbTFaG_L-35">
          <mxGeometry relative="1" as="geometry" />
        </mxCell>
        <mxCell id="LgpKlYFtUbhMLbTFaG_L-70" style="edgeStyle=orthogonalEdgeStyle;rounded=0;orthogonalLoop=1;jettySize=auto;html=1;exitX=0.5;exitY=1;exitDx=0;exitDy=0;entryX=0.5;entryY=0;entryDx=0;entryDy=0;entryPerimeter=0;" edge="1" parent="WIyWlLk6GJQsqaUBKTNV-1" source="LgpKlYFtUbhMLbTFaG_L-35" target="LgpKlYFtUbhMLbTFaG_L-34">
          <mxGeometry relative="1" as="geometry" />
        </mxCell>
        <mxCell id="LgpKlYFtUbhMLbTFaG_L-71" value="Yes" style="text;html=1;align=center;verticalAlign=middle;whiteSpace=wrap;rounded=0;" vertex="1" parent="WIyWlLk6GJQsqaUBKTNV-1">
          <mxGeometry x="230" y="470" width="60" height="30" as="geometry" />
        </mxCell>
        <mxCell id="LgpKlYFtUbhMLbTFaG_L-72" value="N&lt;span style=&quot;background-color: transparent; color: light-dark(rgb(0, 0, 0), rgb(255, 255, 255));&quot;&gt;o&lt;/span&gt;" style="text;html=1;align=center;verticalAlign=middle;whiteSpace=wrap;rounded=0;" vertex="1" parent="WIyWlLk6GJQsqaUBKTNV-1">
          <mxGeometry x="160" y="585" width="60" height="30" as="geometry" />
        </mxCell>
      </root>
    </mxGraphModel>
  </diagram>
</mxfile>
